REM DIRINDEX 1\5,1\2\6,1\2\7,1\3\8,1\3\9,1\4\10,1\4\11,1\4\12
REM DIRNAME folder01,folder02,folder03,folder04,folder05,folder06,folder07,folder08,folder09,folder10,folder11,folder12
TITLE ""
FILE "JE_DB3000_5th_5C_14.mp3" MP3
  TRACK 01 AUDIO
    TITLE "0:"
    INDEX 01 00:00:00
  TRACK 02 AUDIO
    TITLE "6:cjc026_02449"
    INDEX 01 00:00:05
  TRACK 03 AUDIO
    TITLE "0:"
    INDEX 01 00:01:05
  TRACK 04 AUDIO
    TITLE "7:cjc026_02450"
    INDEX 01 00:01:30
  TRACK 05 AUDIO
    TITLE "0:"
    INDEX 01 00:02:28
  TRACK 06 AUDIO
    TITLE "6:cjc026_02451"
    INDEX 01 00:02:53
  TRACK 07 AUDIO
    TITLE "0:"
    INDEX 01 00:03:57
  TRACK 08 AUDIO
    TITLE "7:cjc026_02452"
    INDEX 01 00:04:07
  TRACK 09 AUDIO
    TITLE "0:"
    INDEX 01 00:05:10
  TRACK 10 AUDIO
    TITLE "6:cjc026_02453"
    INDEX 01 00:05:36
  TRACK 11 AUDIO
    TITLE "0:"
    INDEX 01 00:06:49
  TRACK 12 AUDIO
    TITLE "7:cjc026_02454"
    INDEX 01 00:06:73
  TRACK 13 AUDIO
    TITLE "0:"
    INDEX 01 00:08:09
  TRACK 14 AUDIO
    TITLE "6:cjc026_02455"
    INDEX 01 00:08:34
  TRACK 15 AUDIO
    TITLE "0:"
    INDEX 01 00:09:28
  TRACK 16 AUDIO
    TITLE "7:cjc026_02456"
    INDEX 01 00:09:53
  TRACK 17 AUDIO
    TITLE "0:"
    INDEX 01 00:10:49
  TRACK 18 AUDIO
    TITLE "6:cjc026_02457"
    INDEX 01 00:10:74
  TRACK 19 AUDIO
    TITLE "0:"
    INDEX 01 00:11:64
  TRACK 20 AUDIO
    TITLE "7:cjc026_02458"
    INDEX 01 00:12:16
  TRACK 21 AUDIO
    TITLE "0:"
    INDEX 01 00:13:04
  TRACK 22 AUDIO
    TITLE "6:cjc026_02459"
    INDEX 01 00:13:32
  TRACK 23 AUDIO
    TITLE "0:"
    INDEX 01 00:14:35
  TRACK 24 AUDIO
    TITLE "7:cjc026_02460"
    INDEX 01 00:14:62
  TRACK 25 AUDIO
    TITLE "0:"
    INDEX 01 00:15:62
  TRACK 26 AUDIO
    TITLE "6:cjc026_02461"
    INDEX 01 00:16:12
  TRACK 27 AUDIO
    TITLE "0:"
    INDEX 01 00:17:29
  TRACK 28 AUDIO
    TITLE "7:cjc026_02462"
    INDEX 01 00:17:53
  TRACK 29 AUDIO
    TITLE "0:"
    INDEX 01 00:18:54
  TRACK 30 AUDIO
    TITLE "6:cjc026_02463"
    INDEX 01 00:19:13
  TRACK 31 AUDIO
    TITLE "0:"
    INDEX 01 00:20:20
  TRACK 32 AUDIO
    TITLE "7:cjc026_02464"
    INDEX 01 00:20:47
  TRACK 33 AUDIO
    TITLE "0:"
    INDEX 01 00:21:33
  TRACK 34 AUDIO
    TITLE "6:cjc026_02465"
    INDEX 01 00:21:62
  TRACK 35 AUDIO
    TITLE "0:"
    INDEX 01 00:22:68
  TRACK 36 AUDIO
    TITLE "7:cjc026_02466"
    INDEX 01 00:23:20
  TRACK 37 AUDIO
    TITLE "0:"
    INDEX 01 00:24:06
  TRACK 38 AUDIO
    TITLE "6:cjc026_02467"
    INDEX 01 00:24:33
  TRACK 39 AUDIO
    TITLE "0:"
    INDEX 01 00:25:33
  TRACK 40 AUDIO
    TITLE "7:cjc026_02468"
    INDEX 01 00:25:58
  TRACK 41 AUDIO
    TITLE "0:"
    INDEX 01 00:26:56
  TRACK 42 AUDIO
    TITLE "6:cjc026_02469"
    INDEX 01 00:27:06
  TRACK 43 AUDIO
    TITLE "0:"
    INDEX 01 00:27:71
  TRACK 44 AUDIO
    TITLE "7:cjc026_02470"
    INDEX 01 00:28:21
  TRACK 45 AUDIO
    TITLE "0:"
    INDEX 01 00:29:13
  TRACK 46 AUDIO
    TITLE "6:cjc026_02471"
    INDEX 01 00:29:40
  TRACK 47 AUDIO
    TITLE "0:"
    INDEX 01 00:30:50
  TRACK 48 AUDIO
    TITLE "7:cjc026_02472"
    INDEX 01 00:31:00
  TRACK 49 AUDIO
    TITLE "0:"
    INDEX 01 00:32:03
  TRACK 50 AUDIO
    TITLE "6:cjc026_02473"
    INDEX 01 00:32:29
  TRACK 51 AUDIO
    TITLE "0:"
    INDEX 01 00:33:44
  TRACK 52 AUDIO
    TITLE "7:cjc026_02474"
    INDEX 01 00:33:68
  TRACK 53 AUDIO
    TITLE "0:"
    INDEX 01 00:34:71
  TRACK 54 AUDIO
    TITLE "6:cjc026_02475"
    INDEX 01 00:35:19
  TRACK 55 AUDIO
    TITLE "0:"
    INDEX 01 00:36:25
  TRACK 56 AUDIO
    TITLE "7:cjc026_02476"
    INDEX 01 00:36:48
  TRACK 57 AUDIO
    TITLE "0:"
    INDEX 01 00:37:57
  TRACK 58 AUDIO
    TITLE "6:cjc026_02477"
    INDEX 01 00:38:06
  TRACK 59 AUDIO
    TITLE "0:"
    INDEX 01 00:39:09
  TRACK 60 AUDIO
    TITLE "7:cjc026_02478"
    INDEX 01 00:39:35
  TRACK 61 AUDIO
    TITLE "0:"
    INDEX 01 00:40:24
